# xmcd
#
# Track frame offsets: 
#        183
#        32510
#        55335
#
# Disc length: 1026 seconds
#
# Revision: 0
# Processed by: cddbd v1.5.2PL0 Copyright (c) Steve Scherf et al.
# Submitted via: ExactAudioCopyFreeDBPlugin 1.0
#
DISCID=1d040003
DTITLE=Derek and The Dominos - Layla (Maxi Single]
DYEAR=1991
DGENRE=Blues
TTITLE0=Layla (Full Version)
TTITLE1=Bell Bottom Blues
TTITLE2=Clapton, Eric - Wonderful Tonight (Live)
EXTD=
EXTT0=
EXTT1=
EXTT2=
PLAYORDER=
